<?xml version="1.0" standalone="no"?>
<!DOCTYPE svg PUBLIC "-//W3C//DTD SVG 20010904//EN"
 "http://www.w3.org/TR/2001/REC-SVG-20010904/DTD/svg10.dtd">
<svg version="1.0" xmlns="http://www.w3.org/2000/svg"
 width="297.000000pt" height="297.000000pt" viewBox="0 0 297.000000 297.000000"
 preserveAspectRatio="xMidYMid meet">
<metadata>
Created by potrace 1.14, written by Peter Selinger 2001-2017
</metadata>
<g transform="translate(0.000000,297.000000) scale(0.100000,-0.100000)"
fill="#000000" stroke="none">
<path d="M1247 2863 c3 -7 10 -10 17 -6 6 4 4 -2 -4 -12 -8 -10 -10 -16 -3
-12 16 10 78 -48 68 -64 -5 -6 -4 -10 1 -7 5 3 17 -3 27 -14 9 -10 14 -18 11
-18 -4 0 12 -21 35 -47 60 -68 63 -72 56 -83 -4 -6 -3 -10 2 -9 21 4 33 -2 33
-16 0 -8 5 -15 11 -15 6 0 8 -7 5 -16 -6 -15 -4 -15 11 -3 9 8 14 9 10 3 -4
-7 0 -17 9 -24 8 -7 12 -20 9 -29 -3 -8 -3 -12 1 -8 4 4 23 -34 41 -85 18 -50
30 -94 28 -97 -3 -2 -5 -1 -5 4 0 5 -12 -2 -27 -16 -18 -16 -22 -17 -13 -5 14
18 13 19 -3 13 -10 -4 -16 -3 -13 1 7 12 -29 63 -39 55 -4 -5 -5 -2 -1 5 6 11
12 10 27 -4 11 -9 22 -14 26 -11 3 4 1 7 -5 7 -14 0 -43 60 -35 73 3 6 1 7 -5
3 -7 -4 -12 -3 -12 3 0 6 -9 19 -21 30 -13 11 -18 24 -14 32 6 8 4 10 -5 4
-10 -6 -12 -4 -7 8 4 11 2 14 -9 10 -7 -3 -14 0 -14 6 0 6 -9 20 -20 31 -11
11 -18 20 -15 20 5 0 -25 37 -52 66 -7 7 -13 17 -13 23 0 5 -5 13 -12 17 -7 5
-9 2 -4 -7 5 -8 2 -8 -6 2 -18 22 -60 44 -78 41 -12 -2 -12 -1 -1 6 16 11 7
17 -36 27 -18 3 -33 12 -33 18 0 7 -4 6 -10 -3 -7 -11 -10 -11 -10 -2 0 7 -4
10 -10 7 -5 -3 -10 -1 -10 4 0 6 -3 10 -7 9 -17 -4 -123 33 -118 42 3 5 -7 5
-25 0 -19 -5 -28 -5 -25 1 7 10 -19 12 -52 3 -13 -4 -21 -10 -18 -14 3 -5 0
-12 -6 -16 -8 -4 -9 -3 -5 4 8 13 -6 17 -17 5 -7 -6 -28 -10 -84 -15 -13 -1
-23 -6 -23 -12 0 -5 -3 -6 -7 -3 -3 4 -13 1 -21 -6 -13 -9 -14 -9 -8 0 5 9 2
11 -8 7 -9 -3 -13 -11 -9 -17 3 -6 1 -7 -5 -3 -6 4 -26 -1 -44 -11 -18 -9 -36
-16 -41 -15 -4 1 -7 -3 -7 -8 0 -10 -48 -35 -63 -32 -4 1 -6 -4 -5 -10 2 -7
-3 -12 -9 -10 -7 1 -13 -2 -13 -8 0 -5 -7 -10 -15 -10 -8 0 -15 -3 -15 -7 -1
-10 -80 -59 -86 -53 -2 3 -10 -5 -18 -16 -9 -12 -29 -27 -46 -34 -16 -7 -30
-17 -30 -23 0 -6 -3 -8 -6 -4 -4 3 -12 1 -20 -6 -24 -22 -39 -32 -66 -46 -43
-22 -10 -59 37 -40 11 4 39 8 63 8 23 1 42 4 42 9 0 4 24 7 53 7 28 -1 59 2
68 6 8 4 21 4 29 -1 8 -5 19 -5 25 0 6 5 37 12 70 15 33 4 63 9 68 12 4 2 7
-2 7 -9 0 -9 3 -10 8 -2 8 13 105 11 142 -4 17 -6 27 -6 32 2 6 8 8 7 8 -1 0
-7 5 -13 11 -13 5 0 7 5 4 10 -3 6 -1 10 4 10 6 0 11 -5 11 -11 0 -6 7 -8 16
-5 9 3 12 2 9 -5 -4 -6 3 -7 19 -3 15 3 32 1 40 -5 10 -8 16 -9 21 -1 4 6 12
7 24 1 9 -6 47 -11 84 -13 37 -2 67 -7 67 -12 0 -4 9 -6 21 -3 14 4 17 2 10
-6 -7 -9 3 -13 37 -15 25 -1 52 -8 61 -15 12 -10 13 -9 6 3 -8 13 -7 13 8 1 9
-7 17 -11 17 -7 0 3 15 0 34 -8 32 -13 35 -13 39 2 4 14 5 14 6 -2 1 -14 7
-17 26 -13 16 3 24 0 22 -7 -2 -6 1 -16 7 -22 31 -33 48 -58 51 -75 4 -20 3
-21 -92 -21 -31 0 -50 -5 -47 -10 4 -6 -3 -5 -14 1 -17 9 -21 8 -25 -7 -4 -16
-5 -16 -6 1 -1 14 -5 16 -20 7 -14 -7 -21 -6 -24 3 -4 9 -6 8 -6 -2 -1 -11 -4
-11 -18 0 -9 8 -14 9 -10 3 4 -8 -3 -12 -21 -12 -153 -2 -239 -8 -236 -17 3
-6 -9 -19 -26 -28 -17 -10 -27 -23 -24 -29 4 -6 3 -8 -3 -5 -6 4 -24 -6 -41
-21 -61 -54 -85 -71 -95 -65 -6 3 -7 1 -4 -4 4 -6 -2 -18 -13 -28 -11 -10 -20
-15 -20 -12 0 4 -9 -2 -20 -13 -11 -11 -21 -34 -22 -51 -1 -17 -6 -33 -10 -35
-4 -3 -5 -11 -1 -19 3 -9 0 -21 -6 -29 -6 -7 -8 -15 -5 -18 3 -3 -2 -50 -11
-104 -20 -119 -21 -125 -30 -189 -3 -27 -8 -61 -10 -74 -16 -98 -23 -147 -24
-175 -1 -16 -3 -17 -18 -5 -10 8 -2 -4 17 -27 l35 -41 38 20 c20 12 53 35 72
51 19 17 48 42 66 56 17 14 38 32 48 40 15 13 91 74 116 92 6 4 22 18 37 31
14 12 41 34 59 47 18 14 43 35 56 48 13 13 23 20 23 17 0 -3 9 4 20 15 12 12
25 18 31 15 5 -4 8 -2 7 4 -3 9 53 57 148 126 15 11 41 32 58 47 49 44 52 40
35 -47 -5 -27 -11 -64 -14 -81 -3 -17 -14 -76 -25 -130 -12 -55 -23 -115 -24
-134 -2 -19 -9 -89 -16 -155 -6 -66 -16 -135 -22 -154 -9 -28 -18 -159 -18
-241 0 -93 -2 -106 -15 -116 -8 -6 -13 -13 -11 -15 2 -2 7 -35 11 -74 4 -38 9
-72 10 -75 11 -18 15 -133 5 -145 -7 -9 -4 -51 11 -151 21 -131 24 -141 56
-175 27 -29 47 -39 109 -53 70 -17 112 -17 214 -2 3 1 21 14 41 29 35 26 36
30 29 65 -5 20 -11 62 -15 92 -4 30 -11 74 -16 98 -5 24 -7 47 -4 52 3 5 -3
17 -14 27 -11 10 -22 34 -25 53 -5 37 -10 74 -22 155 -4 28 -6 56 -5 63 1 8
-4 23 -12 35 -8 12 -17 56 -22 97 -4 41 -9 91 -11 110 -2 19 -9 62 -15 95 -14
74 -15 116 -6 275 4 69 10 193 12 275 3 83 7 161 10 175 3 14 6 52 6 85 1 32
5 68 9 80 7 18 8 18 15 -7 4 -16 11 -28 17 -28 5 0 6 -5 3 -10 -4 -6 -1 -17 5
-25 6 -8 9 -19 5 -25 -3 -5 -2 -10 3 -10 9 0 67 -161 67 -185 0 -5 6 -16 13
-23 10 -12 17 -46 10 -55 -2 -2 2 -10 9 -18 14 -18 54 -131 48 -137 -3 -3 3
-11 13 -18 14 -11 14 -13 2 -14 -10 0 -11 -3 -4 -8 6 -4 23 -44 39 -89 16 -46
33 -84 39 -85 6 0 16 -2 21 -2 6 -1 16 -5 22 -9 16 -10 60 33 69 67 3 14 10
26 15 26 5 0 8 3 7 8 -5 14 76 161 86 155 5 -3 6 -1 2 5 -9 14 25 83 37 75 6
-3 7 -1 3 5 -9 14 25 83 37 75 6 -3 7 -1 3 5 -4 6 0 25 9 41 8 16 12 38 8 47
-4 12 -3 15 5 10 7 -4 12 -2 12 6 1 9 5 7 14 -4 7 -10 16 -15 20 -11 4 4 4 0
1 -8 -4 -11 1 -18 15 -22 12 -3 19 -10 15 -16 -3 -6 1 -11 11 -11 10 0 14 -3
11 -7 -4 -3 -1 -11 7 -17 11 -9 62 -138 70 -178 2 -7 11 -30 20 -52 10 -21 15
-45 12 -53 -3 -8 -2 -12 3 -9 5 3 12 -6 17 -22 9 -33 9 -34 17 -52 19 -44 35
-99 30 -104 -4 -3 -1 -6 5 -6 7 0 12 -9 12 -19 0 -13 6 -19 19 -18 15 1 18 11
20 67 1 36 4 79 6 95 2 17 6 92 9 169 3 76 7 141 10 143 2 3 0 18 -4 34 -6 18
-5 27 1 23 6 -3 9 15 8 44 -2 38 -6 49 -18 48 -9 0 -15 5 -13 12 1 8 -2 11 -9
6 -9 -5 -10 -2 -5 12 6 15 5 17 -5 7 -18 -18 -30 -16 -23 2 4 9 0 15 -9 15 -8
0 -22 11 -33 24 -10 14 -21 23 -25 20 -7 -4 -23 26 -20 39 1 5 -3 5 -9 2 -14
-8 -41 26 -33 40 4 5 3 7 -2 3 -11 -10 -65 23 -65 39 0 7 -9 13 -19 13 -11 0
-22 4 -25 9 -4 5 -17 8 -31 6 -14 -1 -25 2 -25 6 0 5 -3 8 -7 7 -5 -1 -26 6
-47 15 -22 10 -46 15 -53 13 -7 -3 -12 0 -10 7 1 7 -6 11 -15 9 -10 -2 -18 2
-18 8 0 6 -4 8 -10 5 -6 -3 -10 0 -10 7 0 9 -3 9 -10 -2 -7 -11 -10 -11 -10
-2 0 7 -4 11 -9 8 -5 -3 -30 5 -55 19 -26 14 -53 25 -60 25 -8 0 -27 7 -42 15
-16 8 -38 12 -49 9 -16 -4 -17 -3 -5 5 13 9 12 12 -7 17 -12 3 -24 12 -27 20
-3 8 -12 14 -20 14 -8 0 -16 4 -18 9 -1 5 -10 11 -18 13 -8 2 -18 7 -22 12 -4
6 -17 5 -32 -2 -23 -10 -26 -9 -26 8 0 11 7 18 18 18 9 0 44 3 77 7 102 13
280 10 280 -5 0 -1 18 -3 40 -6 22 -2 47 -7 55 -11 8 -3 23 -5 33 -4 9 1 17
-2 17 -6 0 -5 10 -9 23 -10 19 0 51 -6 107 -18 8 -2 23 -4 33 -4 11 -1 15 -6
11 -12 -5 -8 -1 -8 14 0 15 8 22 8 25 -2 4 -9 6 -9 6 1 1 6 5 12 11 12 5 0 7
-6 4 -13 -4 -12 10 -17 64 -20 12 0 22 -5 22 -9 0 -4 9 -8 21 -8 13 0 18 -4
13 -12 -6 -10 -4 -10 8 0 13 10 19 10 32 -4 10 -9 20 -14 23 -10 4 3 16 -3 28
-14 12 -11 36 -24 52 -29 28 -8 32 -7 36 15 2 13 0 24 -5 24 -6 0 -8 7 -4 15
3 8 0 15 -6 15 -6 0 -9 3 -6 6 4 3 -1 22 -9 42 -8 20 -15 39 -14 42 1 3 -14
13 -33 23 -20 11 -36 23 -36 29 0 5 -4 6 -10 3 -5 -3 -10 -1 -10 6 0 7 -9 5
-22 -7 -20 -16 -21 -17 -9 -1 11 14 11 21 3 29 -9 9 -12 9 -12 -1 0 -7 -5 -9
-10 -6 -6 4 -8 11 -5 16 3 5 -1 6 -9 3 -9 -4 -16 -1 -16 6 0 9 -3 10 -13 1
-10 -8 -19 -6 -35 9 -12 12 -23 16 -27 10 -4 -6 -18 -2 -36 10 -16 12 -29 18
-29 13 0 -4 -4 -2 -9 5 -4 7 -24 14 -44 15 -25 1 -33 5 -26 14 8 8 4 10 -12 6
-13 -4 -20 -2 -16 4 4 5 -10 8 -36 5 -23 -2 -52 -5 -64 -5 -12 -1 -19 -5 -16
-10 3 -5 -4 -6 -16 -2 -12 4 -21 2 -21 -4 0 -6 5 -11 12 -11 6 0 8 -3 5 -6 -4
-4 -12 -2 -19 4 -15 12 -25 12 -55 1 -15 -5 -23 -5 -23 2 0 6 -5 7 -10 4 -6
-4 -8 -10 -6 -14 3 -4 -1 -8 -9 -8 -8 0 -15 5 -15 11 0 6 -5 4 -10 -4 -5 -10
-22 -15 -44 -15 -19 1 -33 -2 -30 -6 2 -4 0 -10 -6 -14 -5 -3 -10 -1 -10 6 0
7 -8 5 -22 -7 -12 -10 -18 -14 -15 -7 4 6 3 14 -3 18 -5 3 -10 2 -10 -3 0 -5
-7 -9 -15 -9 -8 0 -15 5 -15 12 0 6 -13 10 -30 9 -16 -1 -30 2 -30 8 0 5 -5 6
-11 3 -6 -4 -8 -13 -5 -21 3 -8 1 -14 -5 -14 -6 0 -9 -6 -6 -13 5 -15 -28 -41
-55 -43 -21 -2 -33 25 -15 32 8 3 13 15 12 27 -1 12 4 40 11 63 7 23 10 45 7
48 -4 3 -1 6 7 6 10 0 10 4 -1 17 -10 11 -10 14 -1 9 7 -4 12 -1 13 8 2 17 5
33 9 41 1 3 3 8 5 13 4 16 17 48 25 63 7 13 4 18 -12 22 -13 4 -17 10 -12 18
5 9 1 11 -14 7 -16 -4 -19 -2 -15 10 5 11 2 14 -11 9 -9 -4 -15 -3 -11 2 3 5
1 12 -5 16 -6 4 -7 11 -4 17 4 6 2 8 -3 5 -16 -10 -76 50 -67 65 5 9 1 8 -12
-2 -10 -8 -16 -11 -12 -6 4 5 -1 16 -10 25 -10 9 -12 12 -5 7 10 -6 12 -4 7 8
-3 9 -13 16 -21 16 -8 0 -11 5 -7 13 4 6 4 9 -1 5 -4 -4 -14 -3 -21 3 -8 6
-20 9 -28 6 -8 -3 -17 -1 -20 6 -3 9 -5 8 -5 -1 -1 -8 -6 -10 -13 -6 -21 13
-101 14 -117 1 -12 -9 -13 -9 -7 1 5 8 -2 12 -26 13 -18 1 -45 2 -60 3 -18 2
-25 -1 -21 -11z m-42 -341 c-3 -3 -11 0 -18 7 -9 10 -8 11 6 5 10 -3 15 -9 12
-12z m49 -110 c3 -5 -1 -9 -9 -9 -8 0 -12 4 -9 9 3 4 7 8 9 8 2 0 6 -4 9 -8z
m1055 -15 c-2 -1 -13 -9 -24 -17 -19 -14 -19 -14 -6 3 7 9 18 17 24 17 6 0 8
-1 6 -3z m216 -186 c3 -5 2 -12 -3 -15 -5 -3 -9 1 -9 9 0 17 3 19 12 6z m-145
-255 c0 -2 -7 -7 -16 -10 -8 -3 -12 -2 -9 4 6 10 25 14 25 6z m-292 -71 c-3
-3 -9 2 -12 12 -6 14 -5 15 5 6 7 -7 10 -15 7 -18z m363 8 c13 -16 12 -17 -3
-4 -10 7 -18 15 -18 17 0 8 8 3 21 -13z m14 -82 c3 -5 2 -12 -3 -15 -5 -3 -9
1 -9 9 0 17 3 19 12 6z m65 -61 c0 -5 -2 -10 -4 -10 -3 0 -8 5 -11 10 -3 6 -1
10 4 10 6 0 11 -4 11 -10z"/>
<path d="M2440 2376 c0 -2 8 -10 18 -17 15 -13 16 -12 3 4 -13 16 -21 21 -21
13z"/>
<path d="M2515 2340 c3 -5 8 -10 11 -10 2 0 4 5 4 10 0 6 -5 10 -11 10 -5 0
-7 -4 -4 -10z"/>
</g>
</svg>
